<svg id="visual" viewBox="0 0 900 450" width="900" height="450" xmlns="http://www.w3.org/2000/svg" xmlns:xlink="http://www.w3.org/1999/xlink" version="1.1"><rect x="0" y="0" width="900" height="450" fill="#f3f4f6"></rect><path d="M0 300L37.5 303C75 306 150 312 225 309C300 306 375 294 450 286C525 278 600 274 675 264.5C750 255 825 240 862.5 232.5L900 225L900 451L862.5 451C825 451 750 451 675 451C600 451 525 451 450 451C375 451 300 451 225 451C150 451 75 451 37.5 451L0 451Z" fill="#222CA8" stroke-linecap="round" stroke-linejoin="miter"></path></svg>