<svg xmlns="http://www.w3.org/2000/svg" viewBox="0 0 1920 1080"><g transform="
          rotate(270 960 540) 
          translate(-746.6666666666667 -420.0000000000001)
          scale(1.777777777777778)
        "><rect width="1920" height="1080" fill="#f3f4f6"></rect><g transform="translate(0, 0)"><path fill="#2980b9" fill-opacity="1" d="M0,1058.83L45.714,1050.225C91.429,1041.621,182.857,1024.412,274.286,1021.744C365.714,1019.076,457.143,1030.95,548.571,1032.285C640,1033.62,731.429,1024.417,822.857,909.549C914.286,794.682,1005.714,574.15,1097.143,555.525C1188.571,536.9,1280,720.181,1371.429,664.008C1462.857,607.835,1554.286,312.206,1645.714,295.441C1737.143,278.676,1828.571,540.773,1874.286,671.822L1920,802.871L1920,1080L1874.286,1080C1828.571,1080,1737.143,1080,1645.714,1080C1554.286,1080,1462.857,1080,1371.429,1080C1280,1080,1188.571,1080,1097.143,1080C1005.714,1080,914.286,1080,822.857,1080C731.429,1080,640,1080,548.571,1080C457.143,1080,365.714,1080,274.286,1080C182.857,1080,91.429,1080,45.714,1080L0,1080Z"></path></g></g></svg>